<svg xmlns="http://www.w3.org/2000/svg" width="11" height="11" viewBox="0 0 11 11">
  <path fill="#8A4FFF" d="M172.676933,18.7367758 L173.221962,18.1775819 C173.45274,17.940806 173.825912,17.940806 174.054235,18.1775819 L178.826917,23.0717884 C179.057694,23.3085642 179.057694,23.6914358 178.826917,23.9256927 L174.054235,28.8224181 C173.823457,29.059194 173.450285,29.059194 173.221962,28.8224181 L172.676933,28.2632242 C172.4437,28.0239295 172.448611,27.6335013 172.686754,27.3992443 L175.645129,24.5075567 L168.58922,24.5075567 C168.262694,24.5075567 168,24.2380353 168,23.9030227 L168,23.0969773 C168,22.7619647 168.262694,22.4924433 168.58922,22.4924433 L175.645129,22.4924433 L172.686754,19.6007557 C172.446156,19.3664987 172.441245,18.9760705 172.676933,18.7367758 Z" transform="translate(-168 -18)"/>
</svg>
